<svg width="26" height="23" viewBox="0 0 26 23" fill="none" xmlns="http://www.w3.org/2000/svg">
<path d="M25.8049 2.79816V18.13C25.8049 19.3808 24.7863 20.5284 23.5355 20.6832L23.1357 20.7347C21.021 21.0184 18.0423 21.8953 15.6439 22.9011C14.8057 23.2492 13.8773 22.6174 13.8773 21.7018V3.76526C13.8773 3.28816 14.1481 2.84974 14.5736 2.61763C16.9334 1.34105 20.5052 0.206316 22.9294 0H23.0068C24.5542 0 25.8049 1.25079 25.8049 2.79816ZM11.2442 2.61763C8.88447 1.34105 5.31263 0.206316 2.88842 0H2.79816C1.25079 0 0 1.25079 0 2.79816V18.13C0 19.3808 1.01868 20.5284 2.26947 20.6832L2.66921 20.7347C4.78395 21.0184 7.76263 21.8953 10.1611 22.9011C10.9992 23.2492 11.9276 22.6174 11.9276 21.7018V3.76526C11.9294 3.5298 11.8666 3.29837 11.7461 3.09606C11.6256 2.89375 11.4521 2.72829 11.2442 2.61763ZM3.88132 6.52474H6.78263C7.03912 6.52474 7.28511 6.62663 7.46648 6.80799C7.64785 6.98936 7.74974 7.23535 7.74974 7.49184C7.74974 7.74833 7.64785 7.99432 7.46648 8.17569C7.28511 8.35706 7.03912 8.45895 6.78263 8.45895H3.88132C3.62482 8.45895 3.37884 8.35706 3.19747 8.17569C3.0161 7.99432 2.91421 7.74833 2.91421 7.49184C2.91421 7.23535 3.0161 6.98936 3.19747 6.80799C3.37884 6.62663 3.62482 6.52474 3.88132 6.52474ZM7.74974 12.3274H3.88132C3.62482 12.3274 3.37884 12.2255 3.19747 12.0441C3.0161 11.8627 2.91421 11.6168 2.91421 11.3603C2.91421 11.1038 3.0161 10.8578 3.19747 10.6764C3.37884 10.495 3.62482 10.3932 3.88132 10.3932H7.74974C8.00623 10.3932 8.25222 10.495 8.43358 10.6764C8.61495 10.8578 8.71684 11.1038 8.71684 11.3603C8.71684 11.6168 8.61495 11.8627 8.43358 12.0441C8.25222 12.2255 8.00623 12.3274 7.74974 12.3274Z" fill="#E0CA30"/>
</svg>
