<svg width="26" height="22" viewBox="0 0 26 22" fill="none" xmlns="http://www.w3.org/2000/svg">
<path d="M25.0731 5.20267C25.0731 6.03008 24.3961 6.70705 23.5687 6.70705H1.50439C0.676974 6.70705 0 6.03008 0 5.20267V5.19013C0 2.31926 2.31926 0 5.19013 0H19.8704C22.7413 0 25.0731 2.3318 25.0731 5.20267ZM0 10.0944V16.3752C0 19.2461 2.31926 21.5654 5.19013 21.5654H19.8704C22.7413 21.5654 25.0731 19.2336 25.0731 16.3627V10.0944C25.0731 9.26702 24.3961 8.59004 23.5687 8.59004H1.50439C0.676974 8.59004 0 9.26702 0 10.0944ZM7.52193 17.3656H5.01462C4.50062 17.3656 4.07438 16.9394 4.07438 16.4254C4.07438 15.9114 4.50062 15.4851 5.01462 15.4851H7.52193C8.03593 15.4851 8.46217 15.9114 8.46217 16.4254C8.46217 16.9394 8.03593 17.3656 7.52193 17.3656ZM15.6707 17.3656H10.6561C10.1421 17.3656 9.71583 16.9394 9.71583 16.4254C9.71583 15.9114 10.1421 15.4851 10.6561 15.4851H15.6707C16.1847 15.4851 16.6109 15.9114 16.6109 16.4254C16.6109 16.9394 16.1847 17.3656 15.6707 17.3656Z" fill="#E0CA30"/>
</svg>
