<svg version="1.1" id="Layer_1" xmlns="http://www.w3.org/2000/svg" xmlns:xlink="http://www.w3.org/1999/xlink" x="0px" y="0px"
	 width="100%" viewBox="0 0 1024 1024" enable-background="new 0 0 1024 1024" xml:space="preserve">
<path fill="#000000" opacity="1.000000" stroke="none" 
	d="
M436.885071,917.325623 
	C376.510559,911.380981 317.648621,901.138611 262.823120,874.611206 
	C247.455597,867.175659 233.230942,857.954224 220.674820,846.252991 
	C200.373749,827.334229 190.969925,804.216675 192.889694,776.414246 
	C194.716400,749.959778 198.045105,723.768188 205.730606,698.309021 
	C229.892105,618.270813 277.848022,556.597717 349.051086,512.885620 
	C352.454315,510.796387 354.982941,510.651062 358.363495,513.336792 
	C392.899994,540.774597 432.020752,558.269531 475.670624,564.318298 
	C545.434509,573.985901 608.936829,558.008423 665.299500,515.235596 
	C672.182678,510.012054 672.122192,509.846863 679.468933,514.473206 
	C756.604797,563.046265 805.645386,631.606934 825.842102,720.590454 
	C830.497192,741.100037 832.333984,761.991272 833.054077,782.972595 
	C833.986694,810.144836 822.257324,831.530579 802.290771,848.956482 
	C777.544495,870.553650 748.017517,883.062683 717.239868,892.988464 
	C684.508179,903.544434 650.854492,909.901123 616.801270,914.360474 
	C581.571960,918.973877 546.159973,920.864685 510.679047,920.807617 
	C486.212036,920.768250 461.724609,919.950073 436.885071,917.325623 
z"/>
<path fill="#000000" opacity="1.000000" stroke="none" 
	d="
M302.713531,292.043518 
	C309.239044,241.927124 330.079559,199.273560 366.131714,164.487564 
	C398.739746,133.024719 437.657318,113.584084 482.693573,107.682510 
	C553.414246,98.415260 614.522888,119.075409 664.786438,169.605927 
	C698.171204,203.167953 717.727478,244.255966 723.010437,291.273499 
	C729.894287,352.539581 713.908752,407.655518 673.590576,454.672577 
	C639.078003,494.919342 595.218750,519.425842 542.446411,526.308716 
	C474.119293,535.220337 414.431335,515.780151 364.842712,467.942261 
	C330.555878,434.865936 310.309631,394.080475 303.524963,346.729919 
	C300.935150,328.655396 300.837738,310.606842 302.713531,292.043518 
z"/>
</svg>