<svg width="34" height="34" viewBox="0 0 34 34" fill="none" xmlns="http://www.w3.org/2000/svg">
<path d="M28.4749 13.0631C25.9108 13.0631 24.8624 11.2497 26.1374 9.02558C26.8741 7.73642 26.4349 6.09308 25.1458 5.35642L22.6949 3.95392C21.5758 3.28808 20.1308 3.68475 19.4649 4.80392L19.3091 5.07308C18.0341 7.29725 15.9374 7.29725 14.6483 5.07308L14.4924 4.80392C14.3397 4.53614 14.1353 4.30141 13.891 4.11338C13.6467 3.92536 13.3675 3.78779 13.0695 3.70869C12.7716 3.62959 12.4609 3.61054 12.1555 3.65264C11.8501 3.69474 11.5562 3.79715 11.2908 3.95392L8.83992 5.35642C7.55075 6.09308 7.11159 7.75058 7.84825 9.03975C9.13742 11.2497 8.08909 13.0631 5.52492 13.0631C4.05159 13.0631 2.83325 14.2672 2.83325 15.7547V18.2481C2.83325 19.7214 4.03742 20.9397 5.52492 20.9397C8.08909 20.9397 9.13742 22.7531 7.84825 24.9772C7.11159 26.2664 7.55075 27.9097 8.83992 28.6464L11.2908 30.0489C12.4099 30.7147 13.8549 30.3181 14.5208 29.1989L14.6766 28.9297C15.9516 26.7056 18.0483 26.7056 19.3374 28.9297L19.4933 29.1989C20.1591 30.3181 21.6041 30.7147 22.7233 30.0489L25.1741 28.6464C26.4633 27.9097 26.9024 26.2522 26.1658 24.9772C24.8766 22.7531 25.9249 20.9397 28.4891 20.9397C29.9624 20.9397 31.1808 19.7356 31.1808 18.2481V15.7547C31.1733 15.0407 30.8854 14.3583 30.3792 13.8547C29.8729 13.3511 29.189 13.0668 28.4749 13.0631ZM16.9999 21.6056C14.4641 21.6056 12.3958 19.5372 12.3958 17.0014C12.3958 14.4656 14.4641 12.3972 16.9999 12.3972C19.5358 12.3972 21.6041 14.4656 21.6041 17.0014C21.6041 19.5372 19.5358 21.6056 16.9999 21.6056Z" fill="#E0CA30"/>
</svg>
