<svg width="27" height="21" viewBox="0 0 27 21" fill="none" xmlns="http://www.w3.org/2000/svg">
<path d="M13.6019 0C14.0254 0 14.3695 0.330735 14.3695 0.739005V3.84041C14.3695 4.33711 14.7981 4.74902 15.3149 4.74902C15.8443 4.74902 16.2602 4.33711 16.2602 3.84041V0.739005C16.2602 0.330735 16.6043 0 17.0291 0H21.1383C23.8609 0 26.0668 2.1201 26.0668 4.7369V7.78984C26.0668 8.03214 25.9659 8.26232 25.7895 8.43193C25.613 8.60154 25.3735 8.69846 25.1214 8.69846C24.1887 8.69846 23.4324 9.42535 23.4324 10.3097C23.4324 11.2002 24.1798 11.9234 25.1038 11.9331C25.6243 11.938 26.0668 12.2869 26.0668 12.7872V15.8947C26.0668 18.5103 23.8609 20.6316 21.1383 20.6316H17.0291C16.6043 20.6316 16.2602 20.3008 16.2602 19.8926V17.2758C16.2602 16.7669 15.8443 16.3672 15.3149 16.3672C14.7981 16.3672 14.3695 16.7669 14.3695 17.2758V19.8926C14.3695 20.3008 14.0254 20.6316 13.6019 20.6316H4.92849C2.21845 20.6316 0 18.5115 0 15.8947V12.7872C0 12.2869 0.442429 11.938 0.963009 11.9331C1.8882 11.9234 2.63441 11.2002 2.63441 10.3097C2.63441 9.44958 1.90333 8.79538 0.945362 8.79538C0.693265 8.79538 0.453774 8.69846 0.277306 8.52885C0.100839 8.35924 0 8.12906 0 7.88676V4.74902C0 2.13706 2.22349 0 4.94109 0H13.6019ZM15.3149 7.35371C14.7981 7.35371 14.3695 7.76561 14.3695 8.26232V13.1083C14.3695 13.605 14.7981 14.0169 15.3149 14.0169C15.8443 14.0169 16.2602 13.605 16.2602 13.1083V8.26232C16.2602 7.76561 15.8443 7.35371 15.3149 7.35371Z" fill="#E0CA30"/>
</svg>
